<?xml version="1.0" encoding="iso-8859-1"?>
<!-- Uploaded to: SVG Repo, www.svgrepo.com, Generator: SVG Repo Mixer Tools -->
<!DOCTYPE svg PUBLIC "-//W3C//DTD SVG 1.1//EN" "http://www.w3.org/Graphics/SVG/1.1/DTD/svg11.dtd">
<svg fill="#FFFFFF" version="1.1" id="Capa_1" xmlns="http://www.w3.org/2000/svg" xmlns:xlink="http://www.w3.org/1999/xlink" 
	 width="800px" height="800px" viewBox="0 0 612 612" xml:space="preserve">
<g>
	<g>
		<path d="M431.043,168.32c-11.344-4.085-22.359-8.286-32.978-12.525c-3.959,86.05-7.085,135.038-32.136,181.489
			c-6.146,11.383-13.318,22.263-22.03,33.403c4.298,1.007,8.625,2.265,12.951,3.823c41.157,14.81,66.372,49.481,56.315,77.436
			l-107.984-38.863c-11.703,11.489-25.108,23.908-40.566,37.808c11.141,20.792,24.14,44.245,39.144,71.222l0.048-0.116
			C540.295,429.587,520.229,434.756,612,216.078C612,216.088,527.75,203.118,431.043,168.32z M427.133,291.975
			c0,0,26.58-29.077,49.791-32.291c23.211-3.204,50.808,10.55,47.022,30.335C512.989,347.215,427.133,291.975,427.133,291.975z"/>
		<path d="M372.89,89.888c0,0-83.669,16.329-186.445,16.329S0,89.946,0,89.946c12.312,236.835-4.82,225.24,186.474,392.258
			l0.01-0.126C377.71,315.069,360.577,326.724,372.89,89.888z M260.541,176.645c20.753-10.88,51.378-7.279,54.514,12.622
			c9.07,57.515-90.435,34.614-90.435,34.614S239.788,187.524,260.541,176.645z M57.825,189.276
			c3.136-19.911,33.762-23.501,54.515-12.622c20.752,10.879,35.92,47.235,35.92,47.235S48.765,246.791,57.825,189.276z
			 M186.445,379.128c-43.741,0-79.207-24.082-79.207-53.798h158.413C265.651,355.046,230.186,379.128,186.445,379.128z"/>
	</g>
</g>
</svg>