<svg width="18" height="14" viewBox="0 0 18 14" fill="none" xmlns="http://www.w3.org/2000/svg">
    <path d="M17.1562 0.5H16.875V1.20312C16.875 1.44922 16.6641 1.625 16.4531 1.625H15.0469C14.8008 1.625 14.625 1.44922 14.625 1.20312V0.5H3.375V1.20312C3.375 1.44922 3.16406 1.625 2.95312 1.625H1.54688C1.30078 1.625 1.125 1.44922 1.125 1.20312V0.5H0.84375C0.351562 0.5 0 0.886719 0 1.34375V13.1562C0 13.6484 0.351562 14 0.84375 14H1.125V13.2969C1.125 13.0859 1.30078 12.875 1.54688 12.875H2.95312C3.16406 12.875 3.375 13.0859 3.375 13.2969V14H14.625V13.2969C14.625 13.0859 14.8008 12.875 15.0469 12.875H16.4531C16.6641 12.875 16.875 13.0859 16.875 13.2969V14H17.1562C17.6133 14 18 13.6484 18 13.1562V1.34375C18 0.886719 17.6133 0.5 17.1562 0.5ZM3.375 11.3281C3.375 11.5742 3.16406 11.75 2.95312 11.75H1.54688C1.30078 11.75 1.125 11.5742 1.125 11.3281V9.92188C1.125 9.71094 1.30078 9.5 1.54688 9.5H2.95312C3.16406 9.5 3.375 9.71094 3.375 9.92188V11.3281ZM3.375 7.95312C3.375 8.19922 3.16406 8.375 2.95312 8.375H1.54688C1.30078 8.375 1.125 8.19922 1.125 7.95312V6.54688C1.125 6.33594 1.30078 6.125 1.54688 6.125H2.95312C3.16406 6.125 3.375 6.33594 3.375 6.54688V7.95312ZM3.375 4.57812C3.375 4.82422 3.16406 5 2.95312 5H1.54688C1.30078 5 1.125 4.82422 1.125 4.57812V3.17188C1.125 2.96094 1.30078 2.75 1.54688 2.75H2.95312C3.16406 2.75 3.375 2.96094 3.375 3.17188V4.57812ZM13.5 12.4531C13.5 12.6992 13.2891 12.875 13.0781 12.875H4.92188C4.67578 12.875 4.5 12.6992 4.5 12.4531V8.23438C4.5 8.02344 4.67578 7.8125 4.92188 7.8125H13.0781C13.2891 7.8125 13.5 8.02344 13.5 8.23438V12.4531ZM13.5 6.26562C13.5 6.51172 13.2891 6.6875 13.0781 6.6875H4.92188C4.67578 6.6875 4.5 6.51172 4.5 6.26562V2.04688C4.5 1.83594 4.67578 1.625 4.92188 1.625H13.0781C13.2891 1.625 13.5 1.83594 13.5 2.04688V6.26562ZM16.875 11.3281C16.875 11.5742 16.6641 11.75 16.4531 11.75H15.0469C14.8008 11.75 14.625 11.5742 14.625 11.3281V9.92188C14.625 9.71094 14.8008 9.5 15.0469 9.5H16.4531C16.6641 9.5 16.875 9.71094 16.875 9.92188V11.3281ZM16.875 7.95312C16.875 8.19922 16.6641 8.375 16.4531 8.375H15.0469C14.8008 8.375 14.625 8.19922 14.625 7.95312V6.54688C14.625 6.33594 14.8008 6.125 15.0469 6.125H16.4531C16.6641 6.125 16.875 6.33594 16.875 6.54688V7.95312ZM16.875 4.57812C16.875 4.82422 16.6641 5 16.4531 5H15.0469C14.8008 5 14.625 4.82422 14.625 4.57812V3.17188C14.625 2.96094 14.8008 2.75 15.0469 2.75H16.4531C16.6641 2.75 16.875 2.96094 16.875 3.17188V4.57812Z" fill="white"></path>
</svg>